<svg width="50" height="50" viewBox="0 0 50 50" fill="none" xmlns="http://www.w3.org/2000/svg">
<path fill-rule="evenodd" clip-rule="evenodd" d="M10.0323 6L5 10.2886L9.25806 14.1873L14.6774 12.7342V34H18.22C18.4814 35.6595 18.9756 37.1569 19.7027 38.4924C20.8468 40.5773 22.4369 42.1831 24.473 43.3099C26.509 44.4366 28.8739 45 31.5676 45C33.982 45 36.1216 44.5342 37.9865 43.6027C39.8604 42.6622 41.3288 41.3137 42.3919 39.557C43.464 37.7915 44 35.6667 44 33.1825V29.403H31.7297V34.673H36.7551C36.7355 35.4335 36.5469 36.0989 36.1892 36.6692C35.8108 37.2725 35.2387 37.7383 34.473 38.0665C33.7162 38.3948 32.7658 38.5589 31.6216 38.5589C30.3243 38.5589 29.2387 38.2573 28.3649 37.654C27.491 37.0507 26.8333 36.1812 26.3919 35.0456C25.9505 33.91 25.7297 32.5437 25.7297 30.9468C25.7297 29.3676 25.9595 28.019 26.4189 26.9011C26.8874 25.7833 27.5631 24.9271 28.4459 24.3327C29.3378 23.7383 30.4144 23.4411 31.6757 23.4411C32.2613 23.4411 32.7973 23.5076 33.2838 23.6407C33.7793 23.7649 34.2117 23.9556 34.5811 24.2129C34.9595 24.4613 35.2748 24.7674 35.527 25.1312C35.7793 25.4861 35.964 25.8986 36.0811 26.3688H43.6757C43.5315 25.0025 43.1261 23.7471 42.4595 22.6027C41.7928 21.4582 40.9144 20.4689 39.8243 19.635C38.7432 18.7921 37.4955 18.1445 36.0811 17.692C34.6757 17.2307 33.1532 17 31.5135 17C29.6486 17 27.9009 17.3105 26.2703 17.9316C24.6396 18.5437 23.2027 19.4531 21.9595 20.6597C20.8748 21.7047 19.9958 22.9556 19.3226 24.4125V12.7342L24.7419 14.1873L29 9.89873L22.8065 6L16.6129 9.50886L10.0323 6Z" fill="white"/>
</svg>
